<?xml version="1.0" encoding="utf-8"?>
<!-- Generator: Adobe Illustrator 26.0.1, SVG Export Plug-In . SVG Version: 6.00 Build 0)  -->
<svg version="1.1" id="Layer_1" xmlns="http://www.w3.org/2000/svg" xmlns:xlink="http://www.w3.org/1999/xlink" x="0px" y="0px"
	 viewBox="0 0 588.08 408.4" style="enable-background:new 0 0 588.08 408.4;" xml:space="preserve">
<style type="text/css">
	.st0{fill:#3B99D4;}
	.st1{fill:#FFFFFF;}
	.st2{fill:none;stroke:#FFFFFF;stroke-width:2;stroke-miterlimit:10;}
	.st3{fill:none;}
	.st4{font-family:'MyriadPro-Regular';}
	.st5{font-size:72px;}
	.st6{font-family:'Ebrima';}
	.st7{font-family:'Ebrima-Bold';}
	.st8{font-size:20px;}
</style>
<rect class="st0" width="588.08" height="408.4"/>
<g>
	<polygon class="st1" points="269.29,121.88 276.94,114.07 276.26,105.78 275.57,97.5 275.57,97.49 267.2,96.97 258.99,96.46 
		251.38,104.23 267.89,105.26 267.88,105.18 267.96,105.26 267.97,105.26 267.89,105.34 269.26,121.85 	"/>
	<polygon class="st1" points="285.57,105.33 293.22,97.52 292.54,89.24 291.85,80.96 291.85,80.95 283.48,80.43 275.27,79.92 
		267.66,87.68 284.17,88.71 284.16,88.64 284.24,88.72 284.25,88.72 284.17,88.79 285.54,105.3 	"/>
	<polygon class="st1" points="301.16,90.2 308.81,82.39 308.13,74.1 307.44,65.82 307.44,65.82 299.07,65.29 290.86,64.78 
		283.25,72.55 299.76,73.58 299.75,73.51 299.83,73.58 299.84,73.58 299.76,73.66 301.13,90.17 	"/>
	<polygon class="st1" points="311.13,115.62 318.79,107.8 318.1,99.52 317.42,91.24 317.41,91.23 309.04,90.71 300.83,90.2 
		293.22,97.97 309.73,99 309.72,98.92 309.8,99 309.81,99 309.74,99.08 311.1,115.59 	"/>
	<polygon class="st1" points="296.02,131.22 303.67,123.41 302.98,115.12 302.3,106.84 302.3,106.84 293.93,106.31 285.72,105.8 
		278.1,113.57 294.61,114.6 294.6,114.53 294.68,114.6 294.69,114.61 294.62,114.68 295.99,131.19 	"/>
	<polygon class="st1" points="275.05,79.92 282.7,72.1 282.02,63.82 281.33,55.54 281.33,55.53 272.96,55.01 264.75,54.5 
		257.14,62.27 273.65,63.3 273.64,63.22 273.72,63.3 273.73,63.3 273.65,63.38 275.02,79.89 	"/>
	<polygon class="st1" points="259.45,95.45 267.11,87.64 266.42,79.35 265.74,71.07 265.74,71.07 257.36,70.54 249.16,70.03 
		241.54,77.8 258.05,78.83 258.04,78.76 258.12,78.83 258.13,78.84 258.06,78.91 259.42,95.42 	"/>
	<line class="st2" x1="92.26" y1="277.11" x2="468.07" y2="277.11"/>
	<rect x="139.15" y="138.79" class="st3" width="282.04" height="79.11"/>
	<text transform="matrix(1 0 0 1 145.1658 189.9096)" class="st1 st4 st5">PHARMA</text>
	<rect x="194.52" y="204.88" class="st3" width="171.29" height="101.12"/>
	<text transform="matrix(1 0 0 1 219.3093 258.1627)" class="st1 st6 st5">ገበያ</text>
	<rect x="121.95" y="289.37" class="st3" width="316.43" height="59.85"/>
	<text transform="matrix(1 0 0 1 142.3224 304.1689)" class="st1 st7 st8">PROMOTE. CONNECT. GROW</text>
	<path class="st2" d="M40.46,281.47c27.77-317.89,432.37-312.97,479.4,0"/>
</g>
</svg>
